<svg width="1440" height="1024" viewBox="0 0 1440 1024" fill="none" xmlns="http://www.w3.org/2000/svg">
<rect width="1440" height="1024" fill="#F5F4E6"/>
<path d="M404.597 644.109C411.743 639.345 424.597 625.109 431.316 622.32C433.816 620.82 436.597 621.609 441.097 621.609C447.097 622.32 451.974 622.769 456.597 623.609C464.819 625.104 473.42 624.609 481.597 624.609C492.233 624.609 502.597 625.109 513.097 626.609C521.097 626.609 529.816 628.038 537.597 627.109C550.913 625.519 562.097 627.109 576.597 625.609C585.097 625.609 592.597 624.109 607.097 624.109C634.097 624.109 651.448 621.109 675.097 621.109H740.097C751.097 621.109 763.659 620.109 774.097 620.109C795.312 620.109 811.237 617.109 832.597 617.109H897.097C912.733 617.109 927.754 618.109 943.126 618.109C965.588 618.109 985.597 619.109 1009.1 619.109C1038.1 621.109 1069.14 618.525 1097.1 623.609C1099.6 628.609 1104.46 643.12 1112.1 651.609C1120.59 661.042 1120.22 657.311 1128.1 667.609C1138.14 680.744 1151.1 685.609 1165.6 700.609C1174.1 709.402 1182.07 716.08 1189.1 723.109C1195.54 729.556 1201.62 735.171 1213.21 746.281C1213.79 746.84 1213.51 747.826 1212.72 747.978C1204.2 749.609 1201.3 749.609 1197.08 749.609C1191.27 749.394 1185.6 750.609 1179.6 750.609C1141.86 750.609 1103.62 752.609 1065.6 752.609H1017.6C1006.09 752.609 995.037 754.609 983.597 754.609C960.597 756.109 940.097 759.109 916.597 760.609H879.097C866.196 760.609 854.097 760.609 839.097 759.609C803.597 759.609 771.597 758.674 735.597 757.109C712.597 756.109 690.671 755.735 667.097 754.109C655.759 753.327 643.597 752.609 631.097 752.609C610.464 752.609 590.122 750.609 569.597 750.609C552.76 750.609 545.059 750.735 514.597 749.109C489.059 749.109 480.097 749.109 444.149 747.483H400.597C384.572 747.483 374.733 749.455 360.926 749.455C345.679 749.455 330.944 751.109 316.097 751.109C299.567 751.109 284.597 753.248 266.597 753.248H246.597C243.733 753.248 233.808 753.248 226.097 754.109C225.073 753.085 232.493 748.256 233.808 747.483C240.597 743.49 246.597 737.109 253.987 731.954C261.377 726.799 266.734 723.476 273.597 719.109C277.075 716.896 283.381 712.932 287.097 711.109C299.112 705.215 306.362 702.831 317.597 695.609C326.364 689.973 339.064 682.209 349.207 676.812C380.597 660.109 379.097 661.109 404.597 644.109Z" stroke="#112A46" stroke-width="2" stroke-linecap="round"/>
<path d="M881.118 643.609C799.872 643.616 719.945 644.108 638.666 644.109C638.503 644.109 638.339 644.079 638.177 644.103C635.77 644.46 627.185 655.697 626.523 656.874C622.729 663.62 614.724 668.195 610.124 674.973C602.303 686.499 592.653 696.39 585.101 708.257C582.039 713.069 573.971 725.797 583.886 726.964C603.469 729.268 622 728.108 641.951 727.085C672.78 725.504 702.88 731.337 733.663 731.337H815.901C832.529 731.337 879.92 728.109 896.56 726.964C913.545 726.964 901.958 708.227 899.232 697.324C895.114 680.853 885.421 662.044 883.137 645.395C882.998 644.381 882.142 643.609 881.118 643.609Z" stroke="#112A46" stroke-width="2" stroke-linecap="round"/>
<path d="M412.479 723.065C411.978 723.483 411.533 724.117 411.097 724.597C404.097 735.537 386.097 732.096 367.606 732.096C360.852 732.096 346.021 731.104 340.158 728.543C333.861 725.792 357.521 717.634 360.236 716.109C377.189 706.588 394.563 697.849 411.572 688.133C426.192 679.781 436.677 681.831 454.097 681.831C454.557 681.555 454.141 681.954 454.141 682.648C454.141 682.932 453.96 683.194 453.8 683.412C453.362 684.011 452.748 684.593 452.246 685.143C451.393 686.077 450.512 687.071 449.586 687.936C448.004 689.412 446.163 690.569 444.632 692.1C442.381 694.351 439.891 696.367 437.55 698.525C434.737 701.118 432.26 704.051 429.633 706.821C428.597 707.914 427.501 708.944 426.455 710.024C425.207 711.314 423.712 712.375 422.38 713.575C420.582 715.194 418.888 716.92 417.117 718.566C415.537 720.034 414.145 721.676 412.479 723.065Z" fill="#F5F4E6" stroke="#112A46" stroke-width="2" stroke-linecap="round"/>
<path d="M421.009 699.785C406.086 707.045 397.417 709.106 386.098 719.282C384.773 720.473 385.644 722.606 387.426 722.601C409.861 722.53 430.761 722.131 452.836 726.145C465.906 728.521 469.355 731.037 480.289 720.679C490.403 711.097 502.503 703.42 512.601 693.712C515.772 690.662 524.019 684.87 524.019 680.106C524.019 676.298 517.082 677.061 514.597 676.609C504.219 674.722 478.689 667.005 469.097 673.109C452.453 683.701 438.493 691.28 421.009 699.785Z" fill="#F5F4E6" stroke="#112A46" stroke-width="2" stroke-linecap="round"/>
<path d="M610.166 655.125C602.364 655.737 600.498 655.125 592.666 655.125C591.092 655.474 582.83 673.731 582.397 675.032C581.222 678.558 580.21 682.123 578.988 685.647C575.512 695.667 571.76 705.822 567.374 715.471C567.05 716.184 563.567 722.045 564.166 722.344C568.144 722.676 573.664 721.827 577.546 722.344C583.641 723.157 590.296 723.288 596.449 723.231C603.826 723.163 611.332 723.923 618.666 723.231C628.86 722.27 637.946 723.409 648.166 723.125C665.318 722.648 679.499 723.125 696.666 723.125C712.008 723.125 722.318 724.625 737.666 724.625C747.45 724.625 763.882 726.102 773.666 725.625C796.82 724.495 821.035 723.181 844.166 724.125C855.417 724.584 865.666 723.125 877.166 722.625C889.387 722.093 897.724 722.89 906.6 721.707C909.358 721.339 912.059 720.52 914.859 720.266C916.709 720.098 918.603 719.779 920.458 719.739C920.458 719.739 922.666 719.711 924.666 719.739C925.665 720.025 927.768 719.936 927.581 719.711C924.99 716.602 923.242 711.421 921.594 707.738C919.825 703.784 917.356 700.02 915.109 696.318C912.924 692.72 911.477 688.842 909.482 685.149C907.673 681.798 906.831 677.552 905.657 673.923C905.089 672.168 901.424 661.392 900.183 656.864C899.913 655.881 899.01 655.125 897.991 655.125H896.166C892.797 655.125 890.024 655.544 886.666 655.125C877.385 653.965 869.458 655.125 860.166 655.125L789.666 655.125C775.591 655.125 763.199 656.282 749.166 655.125C716.166 655.125 683.247 656.125 650.666 656.125C636.75 656.125 624.097 654.032 610.166 655.125Z" fill="#85807A" stroke="#85807A" stroke-linecap="round"/>
<path d="M581.928 679.399C582.911 679.399 584.042 679.772 585.032 679.94C591.415 681.024 596.53 680.287 603.282 679.349C610.543 678.341 618.062 676.739 625.449 676.739C628.134 676.739 631.293 676.63 633.946 676.197C640.054 675.199 646.45 675.409 652.64 675.409C659.281 675.409 666.209 675.611 672.763 676.739C677.837 677.612 683.552 677.353 688.575 676.295C694.625 675.022 700.872 676.295 706.949 676.295C713.4 676.295 719.557 675.364 726.037 675.827C732.126 676.262 738.176 677.703 744.287 677.625C747.229 677.588 750.455 676.978 753.302 676.295C758.107 675.142 762.753 675.116 767.686 674.842C774.905 674.441 782.391 672.572 789.606 672.847C790.822 672.893 791.959 673.451 793.153 673.611C796.006 673.991 798.986 673.664 801.872 673.98C804.735 674.294 807.716 674.079 810.591 674.079C814.696 674.079 819.177 674.606 823.152 673.414C831.849 670.804 840.888 672.551 849.752 671.763C852.357 671.532 855.136 670.986 857.732 671.616C862.324 672.729 866.844 672.173 871.525 671.64C877.735 670.933 883.888 670.089 890.145 670.089C893.049 670.089 895.572 669.699 898.469 670.113C899.506 670.261 902.75 671.281 903.346 670.089" stroke="#112A46" stroke-opacity="0.25" stroke-width="3" stroke-linecap="round"/>
<path d="M583.702 696.689C584.934 696.689 585.946 696.207 587.1 695.802C592.007 694.082 597.193 693.444 602.272 692.428C618.542 689.174 634.88 685.764 651.384 683.93C655.987 683.419 660.735 683.086 665.349 683.61C669.042 684.03 672.796 684.045 676.408 683.142C681.959 681.755 686.72 681.329 692.319 681.64C694.689 681.772 696.876 682.502 699.264 682.502C701.652 682.502 703.804 682.059 706.161 682.059C713.86 682.059 721.588 682.502 729.337 682.502C743.781 682.502 758.229 681.172 772.562 681.172C777.37 681.172 781.733 680.285 786.552 680.285C791.163 680.285 795.442 679.704 799.63 677.872C801.636 676.994 805.617 677.453 807.684 677.724C809.909 678.016 811.65 677.625 813.842 677.625C818.094 677.625 822.821 678.196 826.846 676.295C831.673 674.016 837.461 674.393 842.659 674.817C847.949 675.249 856.937 677.301 862.338 674.3C863.598 673.6 862.849 673.683 861.574 673.29C860.167 672.858 858.348 673.121 857.042 672.527C854.264 671.264 850.674 671.834 847.929 672.749" stroke="#112A46" stroke-opacity="0.25" stroke-width="3" stroke-linecap="round"/>
<path d="M585.032 696.245C583.118 696.245 586.409 696.352 587.495 696.048C590.849 695.109 594.4 695.113 597.839 694.57C611.808 692.365 626.006 692.255 640.202 692.255C648.26 692.255 656.309 691.812 664.339 691.812C672.531 691.812 680.569 690.482 688.747 690.482C692.32 690.482 695.906 690.039 699.511 690.039C703.207 690.039 706.398 692.255 710.151 692.255C716.517 692.255 722.777 690.482 729.115 690.482C739.534 690.482 750.343 691.271 760.592 689.694C765.022 689.012 769.16 690.482 773.474 690.482C775.403 690.482 777.122 690.612 778.868 689.94C781.233 689.03 782.542 688.523 785.173 688.733C791.071 689.205 796.565 690.898 802.611 690.383C805.173 690.165 806.995 689.587 809.359 688.93C812.868 687.956 816.619 688.265 820.221 688.265C823.806 688.265 827.399 688.326 830.984 688.265C838.023 688.145 844.941 686.492 851.919 686.492C857.276 686.492 862.621 685.605 867.904 685.605C874.753 685.605 881.965 683.217 888.667 684.916C891.704 685.686 894.035 686.492 897.14 686.492C899.472 686.492 901.491 685.865 903.765 685.581C905.001 685.426 906.034 685.162 907.336 685.162C908.331 685.162 910.957 685.717 909.996 684.275" stroke="#112A46" stroke-opacity="0.25" stroke-width="3" stroke-linecap="round"/>
<path d="M614.292 691.812C616.502 691.566 618.856 690.854 621.114 690.507C623.532 690.135 625.927 690.247 628.331 689.595C634.493 687.924 640.916 687.907 647.123 686.714C650.628 686.04 654.125 685.428 657.64 684.817C661.306 684.18 656.864 684.445 655.497 684.719C651.853 685.447 648.237 686.462 644.537 686.837C638.734 687.424 632.967 687.515 627.148 688.265" stroke="#112A46" stroke-opacity="0.25" stroke-width="3" stroke-linecap="round"/>
<path d="M634.685 690.039C638.42 690.039 642.197 690.482 645.965 690.482C646.829 690.482 651.427 690.238 648.281 690.063C645.303 689.898 642.339 689.8 639.365 689.62C636.304 689.434 627.112 689.152 630.178 689.152C636.943 689.152 643.674 688.709 650.448 688.709C651.32 688.709 661.273 688.479 659.413 685.605C658.015 683.444 649.646 689.468 657.024 686.517C657.105 686.484 656.016 687.151 655.94 687.206C655.624 687.438 653.689 688.902 655.275 688.61C656.188 688.442 657.292 687.969 657.788 687.132C657.847 687.032 657.514 687.09 657.443 687.182C656.85 687.952 656.728 688.933 657.788 689.398C659.623 690.204 663.931 688.019 661.63 688.019C659.991 688.019 658.389 689.388 657.295 690.482" stroke="#112A46" stroke-opacity="0.25" stroke-width="3" stroke-linecap="round"/>
<path d="M648.872 691.812C650.707 690.311 653.226 691.187 655.374 690.901C657.451 690.624 659.409 690.482 661.507 690.482C663.398 690.482 664.884 689.241 665.916 687.723C667.999 684.66 665.493 684.648 662.861 685.605C661.248 686.192 662.734 688.621 664.044 687.625C666.682 685.62 659.021 682.393 663.058 686.935" stroke="#112A46" stroke-opacity="0.25" stroke-width="3" stroke-linecap="round"/>
<path d="M670.152 691.369C669.976 689.787 665.105 688.238 666.95 686.393C667.584 685.76 665.732 690.71 667.049 691.369" stroke="#112A46" stroke-opacity="0.25" stroke-width="3" stroke-linecap="round"/>
<path d="M663.559 685.85C665.421 685.85 667.234 684.778 669.092 684.685C670.67 684.606 672.746 684.506 674.268 684.038C681.439 681.831 689.347 682.531 696.771 681.789C700.713 681.395 704.06 683.229 707.933 683.229C709.663 683.229 711.223 682.891 712.915 682.63C713.591 682.526 716.333 682.509 716.555 682.064" stroke="#112A46" stroke-opacity="0.25" stroke-width="3" stroke-linecap="round"/>
<path d="M584.357 697.206C582.984 697.206 587.061 697.788 588.434 697.788C590.13 697.788 592.261 696.586 593.837 696.041C597.799 694.669 601.984 693.712 606.196 693.712C610.138 693.712 614.014 692.903 617.94 692.612C620.399 692.429 623.281 692.761 625.705 692.191C626.625 691.974 627.249 691.991 628.196 692.191C629.986 692.568 641.138 692.008 641.138 692.256" stroke="#112A46" stroke-opacity="0.25" stroke-width="3" stroke-linecap="round"/>
<path d="M570.369 709.983C566.982 709.983 576.833 707.861 580.178 707.336C586.3 706.376 592.609 702.276 598.746 702.276C600.381 702.276 601.952 701.971 603.534 701.575C611.296 699.635 619.58 699.668 627.513 698.928C632.553 698.458 638.913 698.918 643.784 697.527C649.464 695.904 655.557 695.347 661.184 697.06C669.374 699.552 678.058 698.772 686.525 698.772C693.804 698.772 701.083 698.772 708.362 698.772C714.113 698.772 721.112 696.725 726.619 698.928C729.235 699.974 732.655 700.262 735.455 700.135C743.949 699.749 752.489 698.948 760.913 697.799C762.502 697.582 764.331 697.565 765.856 697.021C769.605 695.682 775.539 695.269 779.519 695.269C785.008 695.269 790.497 695.269 795.985 695.269C808.095 695.269 821.101 699.573 833.121 696.826C835.637 696.251 838.28 696.899 840.828 696.32C850.36 694.154 860.323 693.012 870.101 692.233C873.836 691.935 879.869 692.701 883.569 691.221C885.105 690.606 888.387 690.423 890.031 690.364C898.018 690.079 905.825 689.797 913.698 691.766" stroke="#112A46" stroke-opacity="0.25" stroke-width="3" stroke-linecap="round"/>
<path d="M766.557 725.398C770.423 725.398 775.059 724.989 778.78 723.997C783.867 722.64 789.054 721.493 794.195 720.182C799.194 718.906 805.29 718.39 809.843 715.588C814.28 712.858 815.581 710.684 821.17 710.684C823.741 710.684 827.791 711.822 830.162 711.229C832.615 710.615 834.204 709.155 836.274 707.881C846.494 701.592 858.959 708.545 870.178 705.429C878.379 703.151 886.002 703.811 894.39 703.677C900.288 703.583 906.117 702.469 911.946 701.692C913.017 701.549 913.868 701.448 914.827 701.964C916.536 702.885 917.389 703.677 919.303 703.677" stroke="#112A46" stroke-opacity="0.25" stroke-width="3" stroke-linecap="round"/>
<path d="M924.208 713.486C917.779 707.772 907.034 708.582 899.062 708.582C890.927 708.582 879.404 708.549 872.358 713.331C866.981 716.98 865.114 722.971 858.345 722.595C856.233 722.478 854.8 719.027 857.372 718.08C859.952 717.129 866.045 717.568 861.926 720.805C860.045 722.283 863.3 721.693 863.794 720.493C864.351 719.141 859.643 720.294 859.045 720.493" stroke="#112A46" stroke-opacity="0.25" stroke-width="3" stroke-linecap="round"/>
<path d="M857.502 718.587C857.489 718.714 857.258 719.161 857.432 719.211C857.745 719.301 857.777 718.898 857.502 719.044C857.163 719.224 856.99 719.951 857.485 719.528C857.781 719.273 857.584 719.218 857.344 719.378" stroke="#112A46" stroke-opacity="0.25" stroke-width="3" stroke-linecap="round"/>
<path d="M867.949 714.946C866.789 714.946 865.666 714.559 864.476 714.638C862.794 714.75 861.089 714.834 859.402 714.955C858.833 714.995 858.282 715.205 857.722 715.254C855.763 715.424 854.148 716.809 853.263 718.622C852.767 719.64 853.375 720.523 852.243 721.278C851.566 721.729 850.696 721.984 849.992 722.386C849.459 722.691 850.739 722.548 850.872 722.544C851.821 722.517 852.718 722.227 853.694 722.227C853.816 722.227 854.87 722.227 854.407 722.227C853.526 722.227 852.676 722.352 851.804 722.386C850.995 722.417 850.29 722.52 849.464 722.474C848.978 722.446 847.688 722.262 847.688 723.019" stroke="#112A46" stroke-opacity="0.25" stroke-width="3" stroke-linecap="round"/>
<path d="M854.653 720.961C854.217 721.048 853.993 721.643 854.055 722.043C854.191 722.925 854.884 721.687 854.899 721.33C854.907 721.145 854.689 721.905 854.987 722.139C855.149 722.267 855.655 722.535 855.849 722.315C856.081 722.053 855.386 721.805 855.233 721.761C855.151 721.738 855.385 721.682 855.462 721.647C855.993 721.404 856.483 721.096 856.939 720.732C857.785 720.06 858.803 719.263 859.393 718.34C859.67 717.907 859.814 717.366 860.211 717.013C861.125 716.2 862.133 716.619 863.042 717.074C863.539 717.322 865.171 715.855 864.784 717.391C864.663 717.869 863.397 718.795 863.746 718.446C864.49 717.702 865.372 716.69 866.402 716.335C866.841 716.184 867.253 716.127 867.703 716.045C867.989 715.993 868.078 715.653 868.284 715.491C868.831 715.061 869.204 714.927 869.62 714.392C870.241 713.594 868.976 714.538 868.688 714.621C868.017 714.812 869.947 713.975 870.632 713.838C870.793 713.806 871.472 713.577 870.922 713.715C870.026 713.939 869.144 714.469 868.248 714.752C867.359 715.034 866.464 715.388 865.549 715.579C865.16 715.661 865.583 715.439 865.672 715.421C866.249 715.299 866.827 715.066 867.387 714.876C868.304 714.564 869.572 714.171 870.315 713.521C870.986 712.934 871.767 712.438 872.549 712.009C873.5 711.485 874.714 711.613 875.547 710.989" stroke="#112A46" stroke-opacity="0.25" stroke-width="3" stroke-linecap="round"/>
<path d="M879.505 721.119C879.619 721.119 880.687 720.985 881.088 720.961C881.427 720.941 881.189 718.151 881.65 717.558C881.935 717.192 882.334 716.989 882.67 716.687C883.389 716.044 884.332 715.862 885.273 715.614C885.901 715.449 886.481 715.084 887.103 714.946C888.116 714.721 889.232 714.629 890.268 714.629C891.618 714.629 893.044 714.759 894.384 714.594C895.563 714.449 896.718 714.097 897.893 713.926C899.317 713.718 900.824 713.592 902.263 713.592C903.256 713.592 904.281 713.749 905.245 713.97C907.175 714.412 908.861 715.505 910.758 715.948C912.864 716.44 915.353 715.882 917.336 716.845C917.741 717.042 918.106 717.213 918.374 717.558C918.685 717.957 919.166 718.587 919.711 718.587" stroke="#112A46" stroke-opacity="0.25" stroke-width="3" stroke-linecap="round"/>
<path d="M651.78 696.918C650.967 709.134 653.575 729.8 648.973 741.003C646.759 742.19 636.827 744.151 636.393 739.193C636.167 736.605 638.239 724.391 638.142 721.007C639.396 714.354 639.048 702.156 638.886 696.461C638.659 688.486 640.294 680.765 640.08 673.241C639.722 660.703 641.241 648.884 640.883 636.327C640.506 623.092 639.891 600.433 653.434 592.174C664.199 585.61 678.918 585.588 688.33 594.478C692.943 598.835 698.838 610.269 699.683 616.825C701.006 627.096 706.473 637.003 694.473 637.003C689.973 638.003 690.884 633.512 690.789 630.166C690.621 624.279 688.948 618.64 686.192 613.5C683.867 609.162 676.473 598.503 667.625 601.972C652.443 615.003 652.83 630.787 653.434 652.003C653.863 667.07 652.779 681.905 651.78 696.918Z" fill="#EBEBEB" stroke="#112A46" stroke-width="2" stroke-linecap="round"/>
<path d="M1026.46 682.066C1023.56 688.618 1021.06 693.618 1018.26 700.157C1017.56 702.618 1018.37 699.977 1017.09 703.671C1015.56 707.118 1017.32 707.185 1020.67 707.185C1029.14 707.185 1037.56 707.185 1045.72 706.078C1052.06 706.078 1056.56 705.396 1063.56 704.618C1072.56 703.618 1075.56 703.671 1083.59 702.239C1091.06 700.91 1098.56 699.618 1106.11 697.228C1111.06 696.618 1111.06 696.118 1111.97 689.029C1113.02 682.185 1113.94 678.847 1114.52 674.685C1115.36 668.764 1116.82 665.126 1119.02 655.185C1121.22 645.244 1123.34 641.073 1124.92 633.977C1126.02 628.999 1132 622.03 1126.02 621.678C1122.47 621.469 1119.95 621.678 1113.14 623.11C1108.02 624.185 1103.52 624.685 1095.57 625.192C1088.46 625.192 1081.86 625.497 1074.87 626.428C1065.91 627.624 1051.56 630.618 1047.8 631.309C1041.56 632.459 1038.06 644.118 1035.44 652.132C1032.18 662.118 1029.88 672.118 1026.46 682.066Z" fill="#E3E3E3"/>
<path d="M1020.67 707.185C1029.14 707.185 1037.56 707.185 1045.72 706.078C1052.06 706.078 1056.56 705.396 1063.56 704.618C1072.56 703.618 1075.56 703.671 1083.59 702.239C1091.06 700.91 1098.56 699.618 1106.11 697.228C1111.06 696.618 1111.06 696.118 1111.97 689.029C1113.02 682.185 1113.94 678.847 1114.52 674.685C1115.36 668.764 1116.82 665.126 1119.02 655.185C1121.22 645.244 1123.34 641.073 1124.92 633.977C1126.02 628.999 1132 622.03 1126.02 621.678C1122.47 621.469 1119.95 621.678 1113.14 623.11C1108.02 624.185 1103.52 624.685 1095.57 625.192C1088.46 625.192 1081.86 625.497 1074.87 626.428C1065.91 627.624 1051.56 630.618 1047.8 631.309C1041.56 632.459 1038.06 644.118 1035.44 652.132C1032.18 662.118 1029.88 672.118 1026.46 682.066C1023.56 688.618 1021.06 693.618 1018.26 700.157C1017.56 702.618 1018.37 699.977 1017.09 703.671C1015.56 707.118 1017.32 707.185 1020.67 707.185ZM1020.67 707.185C1009.52 705.946 998.167 700.399 987.023 698.685C982.661 698.014 976.351 698.068 972.306 695.949C969.97 694.726 987.972 686.83 989.023 686.185C994.023 684.685 1002.01 681.334 1007.02 679.185C1018.48 674.275 1018.47 675.624 1029.34 670.185" stroke="#112A46" stroke-width="2" stroke-linecap="round"/>
<g filter="url(#filter0_f_18_47)">
<path d="M1080.02 653.666C1079.94 653.777 1079.69 654.498 1079.59 655.012C1079.54 655.224 1079.7 655.817 1079.92 655.796C1080.1 655.777 1080.44 655.633 1080.58 655.54C1080.83 655.379 1081.27 655.462 1081.55 655.375C1082.18 655.18 1082.69 654.731 1083.31 654.47C1083.64 654.33 1083.82 653.822 1084.12 653.679C1084.28 653.603 1084.59 653.115 1084.66 652.935C1084.95 652.109 1085.33 651.294 1085.48 650.435C1085.51 650.277 1085.82 649.638 1085.55 649.544C1085.42 649.499 1084.98 649.673 1084.87 649.743C1084.77 649.807 1084.49 649.73 1084.36 649.774C1084.02 649.886 1083.71 649.937 1083.38 650.073C1082.59 650.399 1081.9 651.144 1081.32 651.758C1080.79 652.331 1080.46 653.051 1080.02 653.666Z" fill="white"/>
<path d="M1080.8 656.959C1080.54 656.943 1080.28 656.959 1080.02 656.939C1079.3 656.836 1078.59 656.649 1077.99 656.211C1077.38 655.776 1076.7 655.602 1076.02 655.354C1075.33 655.104 1074.49 654.953 1073.76 654.998C1073.25 655.03 1072.72 655.183 1072.28 655.417C1071.79 655.679 1071.24 655.788 1070.84 656.192C1070.55 656.485 1070.27 656.797 1069.94 657.068C1069.73 657.242 1069.22 657.712 1069.15 657.987C1069.09 658.275 1068.85 658.736 1068.66 658.967C1068.44 659.241 1068.36 659.607 1068.19 659.907C1068.06 660.132 1067.98 660.487 1067.92 660.741C1067.78 661.363 1067.5 661.873 1067.52 662.53C1067.54 662.987 1067.43 663.318 1067.38 663.77C1067.35 664.014 1067.33 664.125 1067.34 664.632C1067.38 664.925 1067.4 664.782 1067.49 665.355C1067.53 666.097 1067.54 666.362 1067.58 666.897C1067.61 667.324 1067.7 667.933 1067.92 668.308C1068.1 668.63 1068.12 668.942 1068.23 669.284C1068.35 669.648 1068.48 669.97 1068.61 670.339C1068.83 670.948 1069.09 671.755 1069.48 672.335C1069.59 672.486 1069.67 672.646 1069.75 672.811C1069.85 673.031 1069.98 673.203 1070.13 673.405C1070.34 673.696 1070.57 674.084 1070.87 674.309C1071.09 674.472 1071.36 674.804 1071.54 675.028C1072.14 675.797 1072.72 675.942 1073.71 675.737C1074.06 675.665 1074.39 675.781 1074.74 675.654C1074.96 675.575 1075.44 675.466 1075.66 675.479C1076.18 675.51 1076.64 675.144 1077.2 675.21C1077.61 675.259 1078 675.32 1078.4 675.424C1078.81 675.528 1079.36 675.671 1079.72 675.885C1079.95 676.024 1080.12 676.251 1080.34 676.41C1080.56 676.58 1080.81 676.669 1081.03 676.832C1081.54 677.196 1082.42 676.836 1082.95 676.871C1083.45 676.904 1084.33 676.458 1084.63 676.049C1084.81 675.807 1085.18 675.728 1085.38 675.46C1085.57 675.194 1085.88 674.957 1086.09 674.683C1086.24 674.486 1086.4 674.192 1086.58 674.047C1086.81 673.866 1086.96 673.53 1087.12 673.299C1087.3 673.038 1087.53 672.807 1087.7 672.522C1087.81 672.325 1087.92 672.005 1088.08 671.848C1088.22 671.706 1088.44 671.348 1088.52 671.163C1088.62 670.915 1088.81 670.685 1088.9 670.456C1088.91 670.44 1088.35 670.055 1088.25 669.964C1087.91 669.678 1087.83 669.223 1087.55 668.906C1087.05 668.352 1086.69 667.36 1086.48 666.67C1086.37 666.33 1086.38 665.93 1086.26 665.59C1086.07 665.058 1086.1 664.261 1086.17 663.697C1086.25 663.015 1086.44 662.36 1086.88 661.823C1087.36 661.246 1087.95 660.608 1088.58 660.217C1088.8 660.079 1089 659.931 1089.21 659.781C1089.47 659.597 1089.64 659.646 1089.42 659.32C1089.14 658.932 1089.01 658.526 1088.66 658.159C1088.37 657.865 1088.04 657.623 1087.77 657.318C1087.42 656.913 1086.66 656.645 1086.16 656.47C1085.48 656.231 1084.57 656.138 1083.83 656.118C1083.09 656.098 1082.27 656.266 1081.6 656.543C1081.39 656.63 1081.03 656.972 1080.8 656.959Z" fill="white"/>
<path d="M1079.9 656.927C1079.94 656.932 1079.98 656.936 1080.02 656.939M1080.02 656.939C1080.28 656.959 1080.54 656.943 1080.8 656.959C1081.03 656.972 1081.39 656.63 1081.6 656.543C1082.27 656.266 1083.09 656.098 1083.83 656.118C1084.57 656.138 1085.48 656.231 1086.16 656.47C1086.66 656.645 1087.42 656.913 1087.77 657.318C1088.04 657.623 1088.37 657.865 1088.66 658.159C1089.01 658.526 1089.14 658.932 1089.42 659.32C1089.64 659.646 1089.47 659.597 1089.21 659.781C1089 659.931 1088.8 660.079 1088.58 660.217C1087.95 660.608 1087.36 661.246 1086.88 661.823C1086.44 662.36 1086.25 663.015 1086.17 663.697C1086.1 664.261 1086.07 665.058 1086.26 665.59C1086.38 665.93 1086.37 666.33 1086.48 666.67C1086.69 667.36 1087.05 668.352 1087.55 668.906C1087.83 669.223 1087.91 669.678 1088.25 669.964C1088.35 670.055 1088.91 670.44 1088.9 670.456C1088.81 670.685 1088.62 670.915 1088.52 671.163C1088.44 671.348 1088.22 671.706 1088.08 671.848C1087.92 672.005 1087.81 672.325 1087.7 672.522C1087.53 672.807 1087.3 673.038 1087.12 673.299C1086.96 673.53 1086.81 673.866 1086.58 674.047C1086.4 674.192 1086.24 674.486 1086.09 674.683C1085.88 674.957 1085.57 675.194 1085.38 675.46C1085.18 675.728 1084.81 675.807 1084.63 676.049C1084.33 676.458 1083.45 676.904 1082.95 676.871C1082.42 676.836 1081.54 677.196 1081.03 676.832C1080.81 676.669 1080.56 676.58 1080.34 676.41C1080.12 676.251 1079.95 676.024 1079.72 675.885C1079.36 675.671 1078.81 675.528 1078.4 675.424C1078 675.32 1077.61 675.259 1077.2 675.21C1076.64 675.144 1076.18 675.51 1075.66 675.479C1075.44 675.466 1074.96 675.575 1074.74 675.654C1074.39 675.781 1074.06 675.665 1073.71 675.737C1072.72 675.942 1072.14 675.797 1071.54 675.028C1071.36 674.804 1071.09 674.472 1070.87 674.309C1070.57 674.084 1070.34 673.696 1070.13 673.405C1069.98 673.203 1069.85 673.031 1069.75 672.811C1069.67 672.646 1069.59 672.486 1069.48 672.335C1069.09 671.755 1068.83 670.948 1068.61 670.339C1068.48 669.97 1068.35 669.648 1068.23 669.284C1068.12 668.942 1068.1 668.63 1067.92 668.308C1067.7 667.933 1067.61 667.324 1067.58 666.897C1067.54 666.362 1067.53 666.097 1067.49 665.355C1067.4 664.782 1067.38 664.925 1067.34 664.632C1067.33 664.125 1067.35 664.014 1067.38 663.77C1067.43 663.318 1067.54 662.987 1067.52 662.53C1067.5 661.873 1067.78 661.363 1067.92 660.741C1067.98 660.487 1068.06 660.132 1068.19 659.907C1068.36 659.607 1068.44 659.241 1068.66 658.967C1068.85 658.736 1069.09 658.275 1069.15 657.988C1069.22 657.712 1069.73 657.242 1069.94 657.068C1070.27 656.797 1070.55 656.485 1070.84 656.192C1071.24 655.788 1071.79 655.679 1072.28 655.417C1072.72 655.183 1073.25 655.03 1073.76 654.998C1074.49 654.953 1075.33 655.104 1076.02 655.354C1076.7 655.602 1077.38 655.776 1077.99 656.211C1078.59 656.649 1079.3 656.836 1080.02 656.939ZM1080.02 656.939C1080.1 656.951 1080.18 656.961 1080.27 656.971M1079.59 655.012C1079.69 654.498 1079.94 653.777 1080.02 653.666C1080.46 653.051 1080.79 652.331 1081.32 651.758C1081.9 651.144 1082.59 650.399 1083.38 650.073C1083.71 649.937 1084.02 649.886 1084.36 649.774C1084.49 649.73 1084.77 649.807 1084.87 649.743C1084.98 649.673 1085.42 649.499 1085.55 649.544C1085.82 649.638 1085.51 650.277 1085.48 650.435C1085.33 651.294 1084.95 652.109 1084.66 652.935C1084.59 653.115 1084.28 653.603 1084.12 653.679C1083.82 653.822 1083.64 654.33 1083.31 654.47C1082.69 654.731 1082.18 655.18 1081.55 655.375C1081.27 655.462 1080.83 655.379 1080.58 655.54C1080.44 655.633 1080.1 655.777 1079.92 655.796C1079.7 655.817 1079.54 655.224 1079.59 655.012Z" stroke="#E5F4F7" stroke-linecap="round"/>
</g>
<g filter="url(#filter1_f_18_47)">
<path d="M1080.02 653.666C1079.94 653.777 1079.69 654.498 1079.59 655.012C1079.54 655.224 1079.7 655.817 1079.92 655.796C1080.1 655.777 1080.44 655.633 1080.58 655.54C1080.83 655.379 1081.27 655.462 1081.55 655.375C1082.18 655.18 1082.69 654.731 1083.31 654.47C1083.64 654.33 1083.82 653.822 1084.12 653.679C1084.28 653.603 1084.59 653.115 1084.66 652.935C1084.95 652.109 1085.33 651.294 1085.48 650.435C1085.51 650.277 1085.82 649.638 1085.55 649.544C1085.42 649.499 1084.98 649.673 1084.87 649.743C1084.77 649.807 1084.49 649.73 1084.36 649.774C1084.02 649.886 1083.71 649.937 1083.38 650.073C1082.59 650.399 1081.9 651.144 1081.32 651.758C1080.79 652.331 1080.46 653.051 1080.02 653.666Z" fill="white"/>
<path d="M1080.8 656.959C1080.54 656.943 1080.28 656.959 1080.02 656.939C1079.3 656.836 1078.59 656.649 1077.99 656.211C1077.38 655.776 1076.7 655.602 1076.02 655.354C1075.33 655.104 1074.49 654.953 1073.76 654.998C1073.25 655.03 1072.72 655.183 1072.28 655.417C1071.79 655.679 1071.24 655.788 1070.84 656.192C1070.55 656.485 1070.27 656.797 1069.94 657.068C1069.73 657.242 1069.22 657.712 1069.15 657.987C1069.09 658.275 1068.85 658.736 1068.66 658.967C1068.44 659.241 1068.36 659.607 1068.19 659.907C1068.06 660.132 1067.98 660.487 1067.92 660.741C1067.78 661.363 1067.5 661.873 1067.52 662.53C1067.54 662.987 1067.43 663.318 1067.38 663.77C1067.35 664.014 1067.33 664.125 1067.34 664.632C1067.38 664.925 1067.4 664.782 1067.49 665.355C1067.53 666.097 1067.54 666.362 1067.58 666.897C1067.61 667.324 1067.7 667.933 1067.92 668.308C1068.1 668.63 1068.12 668.942 1068.23 669.284C1068.35 669.648 1068.48 669.97 1068.61 670.339C1068.83 670.948 1069.09 671.755 1069.48 672.335C1069.59 672.486 1069.67 672.646 1069.75 672.811C1069.85 673.031 1069.98 673.203 1070.13 673.405C1070.34 673.696 1070.57 674.084 1070.87 674.309C1071.09 674.472 1071.36 674.804 1071.54 675.028C1072.14 675.797 1072.72 675.942 1073.71 675.737C1074.06 675.665 1074.39 675.781 1074.74 675.654C1074.96 675.575 1075.44 675.466 1075.66 675.479C1076.18 675.51 1076.64 675.144 1077.2 675.21C1077.61 675.259 1078 675.32 1078.4 675.424C1078.81 675.528 1079.36 675.671 1079.72 675.885C1079.95 676.024 1080.12 676.251 1080.34 676.41C1080.56 676.58 1080.81 676.669 1081.03 676.832C1081.54 677.196 1082.42 676.836 1082.95 676.871C1083.45 676.904 1084.33 676.458 1084.63 676.049C1084.81 675.807 1085.18 675.728 1085.38 675.46C1085.57 675.194 1085.88 674.957 1086.09 674.683C1086.24 674.486 1086.4 674.192 1086.58 674.047C1086.81 673.866 1086.96 673.53 1087.12 673.299C1087.3 673.038 1087.53 672.807 1087.7 672.522C1087.81 672.325 1087.92 672.005 1088.08 671.848C1088.22 671.706 1088.44 671.348 1088.52 671.163C1088.62 670.915 1088.81 670.685 1088.9 670.456C1088.91 670.44 1088.35 670.055 1088.25 669.964C1087.91 669.678 1087.83 669.223 1087.55 668.906C1087.05 668.352 1086.69 667.36 1086.48 666.67C1086.37 666.33 1086.38 665.93 1086.26 665.59C1086.07 665.058 1086.1 664.261 1086.17 663.697C1086.25 663.015 1086.44 662.36 1086.88 661.823C1087.36 661.246 1087.95 660.608 1088.58 660.217C1088.8 660.079 1089 659.931 1089.21 659.781C1089.47 659.597 1089.64 659.646 1089.42 659.32C1089.14 658.932 1089.01 658.526 1088.66 658.159C1088.37 657.865 1088.04 657.623 1087.77 657.318C1087.42 656.913 1086.66 656.645 1086.16 656.47C1085.48 656.231 1084.57 656.138 1083.83 656.118C1083.09 656.098 1082.27 656.266 1081.6 656.543C1081.39 656.63 1081.03 656.972 1080.8 656.959Z" fill="white"/>
<path d="M1079.9 656.927C1079.94 656.932 1079.98 656.936 1080.02 656.939M1080.02 656.939C1080.28 656.959 1080.54 656.943 1080.8 656.959C1081.03 656.972 1081.39 656.63 1081.6 656.543C1082.27 656.266 1083.09 656.098 1083.83 656.118C1084.57 656.138 1085.48 656.231 1086.16 656.47C1086.66 656.645 1087.42 656.913 1087.77 657.318C1088.04 657.623 1088.37 657.865 1088.66 658.159C1089.01 658.526 1089.14 658.932 1089.42 659.32C1089.64 659.646 1089.47 659.597 1089.21 659.781C1089 659.931 1088.8 660.079 1088.58 660.217C1087.95 660.608 1087.36 661.246 1086.88 661.823C1086.44 662.36 1086.25 663.015 1086.17 663.697C1086.1 664.261 1086.07 665.058 1086.26 665.59C1086.38 665.93 1086.37 666.33 1086.48 666.67C1086.69 667.36 1087.05 668.352 1087.55 668.906C1087.83 669.223 1087.91 669.678 1088.25 669.964C1088.35 670.055 1088.91 670.44 1088.9 670.456C1088.81 670.685 1088.62 670.915 1088.52 671.163C1088.44 671.348 1088.22 671.706 1088.08 671.848C1087.92 672.005 1087.81 672.325 1087.7 672.522C1087.53 672.807 1087.3 673.038 1087.12 673.299C1086.96 673.53 1086.81 673.866 1086.58 674.047C1086.4 674.192 1086.24 674.486 1086.09 674.683C1085.88 674.957 1085.57 675.194 1085.38 675.46C1085.18 675.728 1084.81 675.807 1084.63 676.049C1084.33 676.458 1083.45 676.904 1082.95 676.871C1082.42 676.836 1081.54 677.196 1081.03 676.832C1080.81 676.669 1080.56 676.58 1080.34 676.41C1080.12 676.251 1079.95 676.024 1079.72 675.885C1079.36 675.671 1078.81 675.528 1078.4 675.424C1078 675.32 1077.61 675.259 1077.2 675.21C1076.64 675.144 1076.18 675.51 1075.66 675.479C1075.44 675.466 1074.96 675.575 1074.74 675.654C1074.39 675.781 1074.06 675.665 1073.71 675.737C1072.72 675.942 1072.14 675.797 1071.54 675.028C1071.36 674.804 1071.09 674.472 1070.87 674.309C1070.57 674.084 1070.34 673.696 1070.13 673.405C1069.98 673.203 1069.85 673.031 1069.75 672.811C1069.67 672.646 1069.59 672.486 1069.48 672.335C1069.09 671.755 1068.83 670.948 1068.61 670.339C1068.48 669.97 1068.35 669.648 1068.23 669.284C1068.12 668.942 1068.1 668.63 1067.92 668.308C1067.7 667.933 1067.61 667.324 1067.58 666.897C1067.54 666.362 1067.53 666.097 1067.49 665.355C1067.4 664.782 1067.38 664.925 1067.34 664.632C1067.33 664.125 1067.35 664.014 1067.38 663.77C1067.43 663.318 1067.54 662.987 1067.52 662.53C1067.5 661.873 1067.78 661.363 1067.92 660.741C1067.98 660.487 1068.06 660.132 1068.19 659.907C1068.36 659.607 1068.44 659.241 1068.66 658.967C1068.85 658.736 1069.09 658.275 1069.15 657.988C1069.22 657.712 1069.73 657.242 1069.94 657.068C1070.27 656.797 1070.55 656.485 1070.84 656.192C1071.24 655.788 1071.79 655.679 1072.28 655.417C1072.72 655.183 1073.25 655.03 1073.76 654.998C1074.49 654.953 1075.33 655.104 1076.02 655.354C1076.7 655.602 1077.38 655.776 1077.99 656.211C1078.59 656.649 1079.3 656.836 1080.02 656.939ZM1080.02 656.939C1080.1 656.951 1080.18 656.961 1080.27 656.971M1079.59 655.012C1079.69 654.498 1079.94 653.777 1080.02 653.666C1080.46 653.051 1080.79 652.331 1081.32 651.758C1081.9 651.144 1082.59 650.399 1083.38 650.073C1083.71 649.937 1084.02 649.886 1084.36 649.774C1084.49 649.73 1084.77 649.807 1084.87 649.743C1084.98 649.673 1085.42 649.499 1085.55 649.544C1085.82 649.638 1085.51 650.277 1085.48 650.435C1085.33 651.294 1084.95 652.109 1084.66 652.935C1084.59 653.115 1084.28 653.603 1084.12 653.679C1083.82 653.822 1083.64 654.33 1083.31 654.47C1082.69 654.731 1082.18 655.18 1081.55 655.375C1081.27 655.462 1080.83 655.379 1080.58 655.54C1080.44 655.633 1080.1 655.777 1079.92 655.796C1079.7 655.817 1079.54 655.224 1079.59 655.012Z" stroke="#E5F4F7" stroke-linecap="round"/>
</g>
<g filter="url(#filter2_f_18_47)">
<path d="M1080.02 653.666C1079.94 653.777 1079.69 654.498 1079.59 655.012C1079.54 655.224 1079.7 655.817 1079.92 655.796C1080.1 655.777 1080.44 655.633 1080.58 655.54C1080.83 655.379 1081.27 655.462 1081.55 655.375C1082.18 655.18 1082.69 654.731 1083.31 654.47C1083.64 654.33 1083.82 653.822 1084.12 653.679C1084.28 653.603 1084.59 653.115 1084.66 652.935C1084.95 652.109 1085.33 651.294 1085.48 650.435C1085.51 650.277 1085.82 649.638 1085.55 649.544C1085.42 649.499 1084.98 649.673 1084.87 649.743C1084.77 649.807 1084.49 649.73 1084.36 649.774C1084.02 649.886 1083.71 649.937 1083.38 650.073C1082.59 650.399 1081.9 651.144 1081.32 651.758C1080.79 652.331 1080.46 653.051 1080.02 653.666Z" fill="white"/>
<path d="M1080.8 656.959C1080.54 656.943 1080.28 656.959 1080.02 656.939C1079.3 656.836 1078.59 656.649 1077.99 656.211C1077.38 655.776 1076.7 655.602 1076.02 655.354C1075.33 655.104 1074.49 654.953 1073.76 654.998C1073.25 655.03 1072.72 655.183 1072.28 655.417C1071.79 655.679 1071.24 655.788 1070.84 656.192C1070.55 656.485 1070.27 656.797 1069.94 657.068C1069.73 657.242 1069.22 657.712 1069.15 657.987C1069.09 658.275 1068.85 658.736 1068.66 658.967C1068.44 659.241 1068.36 659.607 1068.19 659.907C1068.06 660.132 1067.98 660.487 1067.92 660.741C1067.78 661.363 1067.5 661.873 1067.52 662.53C1067.54 662.987 1067.43 663.318 1067.38 663.77C1067.35 664.014 1067.33 664.125 1067.34 664.632C1067.38 664.925 1067.4 664.782 1067.49 665.355C1067.53 666.097 1067.54 666.362 1067.58 666.897C1067.61 667.324 1067.7 667.933 1067.92 668.308C1068.1 668.63 1068.12 668.942 1068.23 669.284C1068.35 669.648 1068.48 669.97 1068.61 670.339C1068.83 670.948 1069.09 671.755 1069.48 672.335C1069.59 672.486 1069.67 672.646 1069.75 672.811C1069.85 673.031 1069.98 673.203 1070.13 673.405C1070.34 673.696 1070.57 674.084 1070.87 674.309C1071.09 674.472 1071.36 674.804 1071.54 675.028C1072.14 675.797 1072.72 675.942 1073.71 675.737C1074.06 675.665 1074.39 675.781 1074.74 675.654C1074.96 675.575 1075.44 675.466 1075.66 675.479C1076.18 675.51 1076.64 675.144 1077.2 675.21C1077.61 675.259 1078 675.32 1078.4 675.424C1078.81 675.528 1079.36 675.671 1079.72 675.885C1079.95 676.024 1080.12 676.251 1080.34 676.41C1080.56 676.58 1080.81 676.669 1081.03 676.832C1081.54 677.196 1082.42 676.836 1082.95 676.871C1083.45 676.904 1084.33 676.458 1084.63 676.049C1084.81 675.807 1085.18 675.728 1085.38 675.46C1085.57 675.194 1085.88 674.957 1086.09 674.683C1086.24 674.486 1086.4 674.192 1086.58 674.047C1086.81 673.866 1086.96 673.53 1087.12 673.299C1087.3 673.038 1087.53 672.807 1087.7 672.522C1087.81 672.325 1087.92 672.005 1088.08 671.848C1088.22 671.706 1088.44 671.348 1088.52 671.163C1088.62 670.915 1088.81 670.685 1088.9 670.456C1088.91 670.44 1088.35 670.055 1088.25 669.964C1087.91 669.678 1087.83 669.223 1087.55 668.906C1087.05 668.352 1086.69 667.36 1086.48 666.67C1086.37 666.33 1086.38 665.93 1086.26 665.59C1086.07 665.058 1086.1 664.261 1086.17 663.697C1086.25 663.015 1086.44 662.36 1086.88 661.823C1087.36 661.246 1087.95 660.608 1088.58 660.217C1088.8 660.079 1089 659.931 1089.21 659.781C1089.47 659.597 1089.64 659.646 1089.42 659.32C1089.14 658.932 1089.01 658.526 1088.66 658.159C1088.37 657.865 1088.04 657.623 1087.77 657.318C1087.42 656.913 1086.66 656.645 1086.16 656.47C1085.48 656.231 1084.57 656.138 1083.83 656.118C1083.09 656.098 1082.27 656.266 1081.6 656.543C1081.39 656.63 1081.03 656.972 1080.8 656.959Z" fill="white"/>
</g>
<g filter="url(#filter3_f_18_47)">
<path d="M1079.4 653.594C1079.33 653.71 1079.13 654.446 1079.06 654.966C1079.04 655.181 1079.23 655.762 1079.45 655.726C1079.63 655.695 1079.96 655.528 1080.09 655.425C1080.33 655.248 1080.77 655.301 1081.05 655.195C1081.66 654.958 1082.14 654.476 1082.74 654.173C1083.06 654.011 1083.2 653.492 1083.5 653.329C1083.65 653.242 1083.93 652.734 1083.98 652.551C1084.21 651.707 1084.54 650.867 1084.64 650C1084.65 649.84 1084.92 649.182 1084.64 649.106C1084.51 649.07 1084.09 649.273 1083.98 649.351C1083.88 649.421 1083.6 649.364 1083.47 649.417C1083.14 649.551 1082.84 649.623 1082.51 649.781C1081.74 650.16 1081.11 650.95 1080.58 651.601C1080.08 652.21 1079.8 652.95 1079.4 653.594Z" fill="white"/>
<path d="M1080.4 656.826C1080.14 656.828 1079.89 656.861 1079.63 656.859C1078.9 656.806 1078.18 656.667 1077.55 656.271C1076.92 655.878 1076.22 655.75 1075.53 655.549C1074.82 655.347 1073.97 655.253 1073.25 655.348C1072.74 655.414 1072.23 655.602 1071.8 655.866C1071.33 656.16 1070.79 656.306 1070.42 656.736C1070.15 657.049 1069.89 657.379 1069.58 657.672C1069.38 657.859 1068.9 658.363 1068.86 658.642C1068.81 658.933 1068.6 659.41 1068.43 659.653C1068.23 659.941 1068.18 660.312 1068.03 660.623C1067.91 660.856 1067.85 661.216 1067.81 661.473C1067.71 662.103 1067.47 662.631 1067.54 663.286C1067.59 663.74 1067.5 664.078 1067.48 664.532C1067.46 664.778 1067.46 664.89 1067.5 665.394C1067.56 665.684 1067.57 665.541 1067.7 666.106C1067.79 666.844 1067.81 667.108 1067.89 667.638C1067.95 668.062 1068.08 668.664 1068.32 669.023C1068.53 669.331 1068.57 669.642 1068.71 669.975C1068.85 670.33 1069 670.643 1069.16 671.002C1069.42 671.595 1069.73 672.382 1070.16 672.935C1070.27 673.078 1070.37 673.232 1070.46 673.392C1070.57 673.604 1070.71 673.767 1070.87 673.959C1071.11 674.235 1071.36 674.605 1071.68 674.81C1071.91 674.958 1072.2 675.271 1072.39 675.482C1073.05 676.208 1073.63 676.314 1074.6 676.042C1074.95 675.946 1075.28 676.04 1075.63 675.89C1075.84 675.796 1076.31 675.655 1076.54 675.653C1077.05 675.648 1077.49 675.251 1078.05 675.279C1078.47 675.3 1078.86 675.335 1079.27 675.411C1079.68 675.487 1080.23 675.593 1080.61 675.782C1080.85 675.905 1081.04 676.12 1081.26 676.265C1081.5 676.418 1081.75 676.49 1081.99 676.638C1082.52 676.967 1083.37 676.548 1083.9 676.547C1084.4 676.546 1085.25 676.042 1085.52 675.613C1085.68 675.359 1086.05 675.256 1086.23 674.975C1086.4 674.696 1086.69 674.439 1086.88 674.151C1087.02 673.944 1087.16 673.64 1087.33 673.483C1087.55 673.286 1087.68 672.942 1087.82 672.7C1087.98 672.427 1088.2 672.181 1088.34 671.886C1088.45 671.681 1088.53 671.355 1088.68 671.187C1088.81 671.036 1089 670.664 1089.07 670.475C1089.16 670.22 1089.32 669.978 1089.4 669.743C1089.41 669.726 1088.83 669.38 1088.72 669.296C1088.37 669.034 1088.25 668.585 1087.95 668.288C1087.42 667.769 1086.99 666.804 1086.73 666.13C1086.6 665.797 1086.59 665.397 1086.44 665.068C1086.21 664.549 1086.19 663.752 1086.22 663.184C1086.25 662.499 1086.4 661.833 1086.8 661.267C1087.24 660.659 1087.79 659.982 1088.39 659.549C1088.6 659.397 1088.79 659.235 1088.99 659.072C1089.24 658.871 1089.41 658.907 1089.16 658.598C1088.86 658.229 1088.71 657.833 1088.33 657.491C1088.02 657.216 1087.67 656.998 1087.39 656.711C1087 656.332 1086.23 656.115 1085.72 655.974C1085.02 655.782 1084.11 655.752 1083.37 655.782C1082.63 655.812 1081.83 656.035 1081.17 656.358C1080.97 656.458 1080.64 656.824 1080.4 656.826Z" fill="white"/>
</g>
<path d="M1079.4 653.594C1079.33 653.71 1079.13 654.446 1079.06 654.966C1079.04 655.181 1079.23 655.762 1079.45 655.726C1079.63 655.695 1079.96 655.528 1080.09 655.425C1080.33 655.248 1080.77 655.301 1081.05 655.195C1081.66 654.958 1082.14 654.476 1082.74 654.173C1083.06 654.011 1083.2 653.492 1083.5 653.329C1083.65 653.242 1083.93 652.734 1083.98 652.551C1084.21 651.707 1084.54 650.867 1084.64 650C1084.65 649.84 1084.92 649.182 1084.64 649.106C1084.51 649.07 1084.09 649.273 1083.98 649.351C1083.88 649.421 1083.6 649.364 1083.47 649.417C1083.14 649.551 1082.84 649.623 1082.51 649.781C1081.74 650.16 1081.11 650.95 1080.58 651.601C1080.08 652.21 1079.8 652.95 1079.4 653.594Z" fill="white"/>
<path d="M1080.4 656.826C1080.14 656.828 1079.89 656.861 1079.63 656.859C1078.9 656.806 1078.18 656.667 1077.55 656.271C1076.92 655.878 1076.22 655.75 1075.53 655.549C1074.82 655.347 1073.97 655.253 1073.25 655.348C1072.74 655.414 1072.23 655.602 1071.8 655.866C1071.33 656.16 1070.79 656.306 1070.42 656.736C1070.15 657.049 1069.89 657.379 1069.58 657.672C1069.38 657.859 1068.9 658.363 1068.86 658.642C1068.81 658.933 1068.6 659.41 1068.43 659.653C1068.23 659.941 1068.18 660.312 1068.03 660.623C1067.91 660.856 1067.85 661.216 1067.81 661.473C1067.71 662.103 1067.47 662.631 1067.54 663.286C1067.59 663.74 1067.5 664.078 1067.48 664.532C1067.46 664.778 1067.46 664.89 1067.5 665.394C1067.56 665.684 1067.57 665.541 1067.7 666.106C1067.79 666.844 1067.81 667.108 1067.89 667.638C1067.95 668.062 1068.08 668.664 1068.32 669.023C1068.53 669.331 1068.57 669.642 1068.71 669.975C1068.85 670.33 1069 670.643 1069.16 671.002C1069.42 671.595 1069.73 672.382 1070.16 672.935C1070.27 673.078 1070.37 673.232 1070.46 673.392C1070.57 673.604 1070.71 673.767 1070.87 673.959C1071.11 674.235 1071.36 674.605 1071.68 674.81C1071.91 674.958 1072.2 675.271 1072.39 675.482C1073.05 676.208 1073.63 676.314 1074.6 676.042C1074.95 675.946 1075.28 676.04 1075.63 675.89C1075.84 675.796 1076.31 675.655 1076.54 675.653C1077.05 675.648 1077.49 675.251 1078.05 675.279C1078.47 675.3 1078.86 675.335 1079.27 675.411C1079.68 675.487 1080.23 675.593 1080.61 675.782C1080.85 675.905 1081.04 676.12 1081.26 676.265C1081.5 676.418 1081.75 676.49 1081.99 676.638C1082.52 676.967 1083.37 676.548 1083.9 676.547C1084.4 676.546 1085.25 676.042 1085.52 675.613C1085.68 675.359 1086.05 675.256 1086.23 674.975C1086.4 674.696 1086.69 674.439 1086.88 674.151C1087.02 673.944 1087.16 673.64 1087.33 673.483C1087.55 673.286 1087.68 672.942 1087.82 672.7C1087.98 672.427 1088.2 672.181 1088.34 671.886C1088.45 671.681 1088.53 671.355 1088.68 671.187C1088.81 671.036 1089 670.664 1089.07 670.475C1089.16 670.22 1089.32 669.978 1089.4 669.743C1089.41 669.726 1088.83 669.38 1088.72 669.296C1088.37 669.034 1088.25 668.585 1087.95 668.288C1087.42 667.769 1086.99 666.804 1086.73 666.13C1086.6 665.797 1086.59 665.397 1086.44 665.068C1086.21 664.549 1086.19 663.752 1086.22 663.184C1086.25 662.499 1086.4 661.833 1086.8 661.267C1087.24 660.659 1087.79 659.982 1088.39 659.549C1088.6 659.397 1088.79 659.235 1088.99 659.072C1089.24 658.871 1089.41 658.907 1089.16 658.598C1088.86 658.229 1088.71 657.833 1088.33 657.491C1088.02 657.216 1087.67 656.998 1087.39 656.711C1087 656.332 1086.23 656.115 1085.72 655.974C1085.02 655.782 1084.11 655.752 1083.37 655.782C1082.63 655.812 1081.83 656.035 1081.17 656.358C1080.97 656.458 1080.64 656.824 1080.4 656.826Z" fill="white"/>
<path d="M688.658 443.082C688.193 447.266 688.11 450.993 688.501 455.424C689.986 472.254 694.97 490.096 701 505.735C706.597 520.25 714.284 532.255 727.571 540.757C742.291 550.176 762.729 555.633 779.297 547.596C795.93 539.528 809.363 519.656 813.808 502.001C816.851 489.913 818.565 477.331 819.782 464.936C820.359 459.062 820.254 453.181 820.254 447.288C820.254 445.899 820.928 443.065 819.547 442.374" stroke="#112A46" stroke-width="2" stroke-linecap="round"/>
<path d="M718.373 463.599C715.852 463.599 718.373 466.791 718.373 463.953C718.373 460.377 718.197 464.926 716.958 464.307" stroke="#112A46" stroke-width="2" stroke-linecap="round"/>
<path d="M776.389 459.354C775.014 459.354 774.459 460.526 775.131 461.87C775.855 463.319 777.995 460.549 776.703 460.18C775.144 459.734 776.012 463.08 776.389 462.42C776.9 461.526 777.096 459.335 777.096 461.477" stroke="#112A46" stroke-width="2" stroke-linecap="round"/>
<path d="M751.626 477.75C751.406 479.512 749.106 481.169 748.914 483.567C748.742 485.719 751.177 484.406 752.334 484.117" stroke="#112A46" stroke-width="2" stroke-linecap="round"/>
<path d="M740.306 509.587C741.619 511.975 744.659 517.681 747.695 518.077C751.352 518.554 753.44 509.229 753.749 506.757" stroke="#112A46" stroke-width="2" stroke-linecap="round"/>
<path d="M784.879 483.41C781.656 483.768 781.955 491.561 785.272 492.096C789.793 492.825 790.885 481.157 784.879 483.41Z" stroke="#112A46" stroke-width="2" stroke-linecap="round"/>
<path d="M716.723 496.616C715.631 495.103 715.594 493.056 716.249 491.313C716.719 490.063 718.386 490.196 719.133 491.302C720.228 492.922 721.379 494.847 721.203 496.774C720.879 500.345 717.893 498.239 716.723 496.616Z" stroke="#112A46" stroke-width="2" stroke-linecap="round"/>
<path d="M709.883 459.354C708.793 458.462 703.76 454.865 704.931 453.694" stroke="#112A46" stroke-width="2" stroke-linecap="round"/>
<path d="M716.251 457.939C716.071 456.232 714.836 451.27 714.836 452.987" stroke="#112A46" stroke-width="2" stroke-linecap="round"/>
<path d="M722.618 460.062C723.124 457.536 724.033 455.781 724.033 452.987" stroke="#112A46" stroke-width="2" stroke-linecap="round"/>
<path d="M774.974 453.694C773.905 451.557 773.189 449.689 772.851 447.327" stroke="#112A46" stroke-width="2" stroke-linecap="round"/>
<path d="M778.511 455.109C779.775 453.688 780.75 451.224 781.341 449.449" stroke="#112A46" stroke-width="2" stroke-linecap="round"/>
<path d="M782.756 458.647L787.709 453.694" stroke="#112A46" stroke-width="2" stroke-linecap="round"/>
<path d="M819.547 472.797C819.79 470.846 824.078 468.275 825.757 468.002C829.657 467.367 825.246 474.199 823.084 474.92" stroke="#112A46" stroke-width="2" stroke-linecap="round"/>
<path d="M691.488 477.042C690.877 471.539 683.182 471.755 680.797 475.863C677.926 480.807 687.64 485.358 688.658 481.287" stroke="#112A46" stroke-width="2" stroke-linecap="round"/>
<path d="M784.171 419.734C780.744 414.593 793.106 400.209 796.042 411.952C797.375 417.285 793.465 420.252 792.268 425.04C791.397 428.524 805.205 425.635 806.497 425.394C810.371 424.673 816.514 422.525 819.311 426.809C822.181 431.206 813.828 437.717 811.685 440.802C808.209 445.808 819.423 445.67 821.748 445.912C823.59 446.103 828.377 445.729 829.648 447.72C832.729 452.547 827.175 460.594 826.346 465.329C825.347 471.038 829.163 473.632 830.867 478.614C833.128 485.226 830.74 490.421 828.783 496.656C827.445 500.92 826.346 504.514 831.102 506.836C832.804 507.666 840.635 507.943 841.401 510.059C842.604 513.385 832.449 519.276 830.709 520.829C826.086 524.955 822.443 535.454 828.469 539.813C831.131 541.739 836.276 542.466 836.959 546.338C837.666 550.347 831.54 555.012 831.024 559.27C830.318 565.097 837.78 563.706 840.379 567.013C842.957 570.294 834.978 574.28 832.989 575.385" stroke="#112A46" stroke-width="2" stroke-linecap="round"/>
<path d="M811.056 512.417C820.816 511.333 809.659 528.578 808.698 533.014C807.603 538.067 810.668 539.037 814.28 541.543C815.963 542.711 818.195 544.262 819.075 546.22C820.121 548.548 821.549 555.628 821.826 556.911C821.826 584.609 831.973 601.516 832.097 602.109" stroke="#112A46" stroke-width="2" stroke-linecap="round"/>
<path d="M795.491 547.793C795.226 545.4 795.127 544.754 798.4 544.412C805.467 543.674 798.915 560.446 799.933 564.262C800.756 567.348 802.085 568.893 801.623 572.359C801.191 575.601 799.091 579.363 801.151 582.421C802.933 585.064 810.103 596.109 807.401 589.732C809.498 592.802 812.87 606.517 815.097 604.609" stroke="#112A46" stroke-width="2" stroke-linecap="round"/>
<path d="M801.859 421.149C803.784 415.181 806.703 409.436 813.886 409.436C826.422 409.436 820.606 425.118 819.389 432.233C818.861 435.32 818.421 437.911 821.787 439.033C826.758 440.69 831.781 440.749 836.409 443.593C839.575 445.538 840.81 447.595 841.007 451.257C841.497 460.307 842.751 469.467 842.658 478.536C842.462 497.65 839.606 517.069 846.746 535.529C848.129 539.105 849.58 540.935 849.183 544.962C848.765 549.211 847.294 553.171 845.881 557.147C843.6 563.568 849.915 569.995 850.677 576.093" stroke="#112A46" stroke-width="2" stroke-linecap="round"/>
<path d="M823.084 425.394C827.122 418.42 834.505 413.287 842.58 417.454C855.664 424.208 849.055 435.064 845.567 445.755C844.239 449.823 843.158 453.156 847.375 455.424C851.423 457.601 855.72 459.173 858.223 463.364C863.682 472.501 856.912 482.365 852.485 490.17C849.486 495.456 841.836 506.757 850.755 510.138C852.825 510.922 857.851 510.604 859.481 511.867C861.363 513.324 861.347 518.066 861.447 519.335C861.892 524.984 861.654 531.564 862.626 537.18C863.359 541.416 863.645 542.37 866.399 544.727C867.584 545.74 868.368 545.24 868.286 547.164C868.133 550.716 864.787 553.72 862.39 555.889C861.614 556.592 856.637 559.81 856.808 561.235C856.887 561.893 859.401 563.062 859.874 563.358" stroke="#112A46" stroke-width="2" stroke-linecap="round"/>
<path d="M738.183 425.394C737.189 415.445 717.825 416.122 711.534 417.612C707.098 418.662 702.152 422.175 701.55 427.045C701.144 430.337 706.001 431.118 705.717 433.727C705.357 437.037 694.906 437.773 692.667 437.815C687.256 437.917 682.418 436.229 678.753 441.117C675.875 444.955 673.419 450.171 675.058 455.031C676.234 458.515 681.773 457.747 682.526 460.652C682.941 462.25 682.348 463.677 682.291 465.25C681.993 473.474 684.015 482.611 685.474 490.524C687.371 500.808 689.941 510.535 692.903 520.514C693.642 523.004 693.839 524.791 693.218 527.275C692.152 531.536 691.997 533.311 695.104 536.59C698.996 540.698 701.11 545.217 701.275 550.937C701.402 555.295 700.001 559.902 701.236 564.183C702.69 569.223 706.867 571.983 709.726 576.093C712.722 580.4 711.422 585.11 710.709 589.928C710.01 594.643 713.397 594.488 716.958 594.488" stroke="#112A46" stroke-width="2" stroke-linecap="round"/>
<path d="M687.243 581.045C684.639 581.665 682.196 579.555 680.168 578.176C674.568 574.368 669.554 569.473 665.9 563.751C661.503 556.865 660.623 550.44 666.136 543.98C670.119 539.313 674.516 535.62 670.42 529.633C664.754 521.351 655.006 514.682 660.043 503.691C661.611 500.271 663.724 497.114 666.254 494.337C667.515 492.952 669.894 491.44 670.735 489.699C671.679 487.742 663.434 482.905 663.581 479.086C663.846 472.2 669.176 466.407 670.263 459.669C671.575 451.536 665.956 443.516 667.394 435.771C669.834 422.619 680.515 414.982 692.785 412.463C698.906 411.206 705.614 411.383 711.534 409.279C717.059 407.315 720.958 402.878 726.038 400.16C737.061 394.262 739.531 402.133 747.067 407.785C750.76 410.556 756.573 408.414 760.824 408.414" stroke="#112A46" stroke-width="2" stroke-linecap="round"/>
<path d="M728.278 572.555C727.196 572.888 724.338 574.005 723.365 572.87C720.268 569.256 716.565 564.388 715.15 559.82C713.301 553.851 720.465 550.291 718.845 544.373C716.699 536.535 711.507 528.296 707.053 521.615" stroke="#112A46" stroke-width="2" stroke-linecap="round"/>
<path d="M682.998 498.267C681.222 496.689 678.477 500.285 677.417 501.49C674.986 504.253 674.888 506.872 677.338 509.666C680.73 513.533 680.444 517.019 679.618 522.087C678.975 526.029 678.331 526.839 681.583 529.24C689.919 535.396 676.991 546.493 682.605 554.475C685.604 558.739 686.554 561.571 685.828 566.817C685.551 568.822 685.18 569.917 687.243 570.433" stroke="#112A46" stroke-width="2" stroke-linecap="round"/>
<path d="M771.436 399.217C771.436 394.627 776.022 385.314 781.656 390.058C784.813 392.717 788.236 393.097 792.347 392.535C796.191 392.009 799.851 388.816 803.824 389.469C807.464 390.066 810.187 393.723 813.454 395.286C816.325 396.659 817.318 400.968 818.446 403.737C819.762 406.966 820.859 405.847 824.027 406.449C828.165 407.234 831.093 411.637 831.574 415.489" stroke="#112A46" stroke-width="2" stroke-linecap="round"/>
<path d="M764.361 424.687C766.498 421.906 768.476 419.019 771.633 417.297C773.353 416.359 775.798 416.618 777.175 415.135C780.469 411.588 781.474 406.776 786.451 405.034C791.767 403.173 808.906 403.462 803.274 403.462" stroke="#112A46" stroke-width="2" stroke-linecap="round"/>
<path d="M750.919 418.319C746.603 411.623 742.275 410.962 735.039 409.515C732.365 408.98 726.826 409.197 725.448 411.952" stroke="#112A46" stroke-width="2" stroke-linecap="round"/>
<path d="M766.484 399.924C766.484 398.636 766.47 397.358 766.091 396.111C765.435 393.958 760.265 393.808 759.094 393.635C749.563 392.226 739.91 391.329 730.283 390.962C722.695 390.673 715.085 390.353 710.591 397.094" stroke="#112A46" stroke-width="2" stroke-linecap="round"/>
<path d="M688.658 413.367C688.658 407.288 690.114 400.055 696.598 397.408C700.284 395.904 703.908 395.397 707.525 393.321C712.926 390.22 717.182 388.226 723.287 386.757C730.525 385.014 735.564 382.236 743.175 382.236C747.339 382.236 752.196 381.914 755.95 384.045C757.105 384.7 757.871 385.825 759.016 386.481C763.3 388.939 768.879 389.495 773.559 390.726" stroke="#112A46" stroke-width="2" stroke-linecap="round"/>
<path d="M697.148 399.924C683.91 398.269 670.752 409.841 668.966 422.643C667.926 430.098 662.698 436.192 660.712 443.475C659.87 446.561 659.708 450.192 661.144 453.144C662.436 455.8 663.45 457.034 662.913 460.258C661.77 467.113 658.12 472.535 658.393 479.715C658.654 486.6 658.895 492.994 658.235 499.839C657.782 504.551 658.434 508.592 660.279 512.968C662.095 517.273 664.476 521.067 663.738 525.938C663.198 529.504 661.477 532.835 660.83 536.394C660.218 539.757 661.09 542.428 661.773 545.67" stroke="#112A46" stroke-width="2" stroke-linecap="round"/>
<path d="M755.871 420.442C757.044 417.95 758.883 416.722 760.824 414.782C763.866 411.739 766.934 408.749 769.982 405.702C772.41 403.274 778.219 402.689 781.42 401.653C786.447 400.027 791.793 400.487 796.906 401.339" stroke="#112A46" stroke-width="2" stroke-linecap="round"/>
<path d="M724.741 430.347C722.546 428.371 719.404 427.771 716.605 427.163C712.189 426.203 710.783 426.219 707.053 428.932" stroke="#112A46" stroke-width="2" stroke-linecap="round"/>
<path d="M687.243 438.129C687.243 435.659 687.676 434.054 688.658 431.762" stroke="#112A46" stroke-width="2" stroke-linecap="round"/>
<path d="M689.366 431.762C691.079 429.834 693.31 429.032 695.733 428.224" stroke="#112A46" stroke-width="2" stroke-linecap="round"/>
<path d="M769.314 382.236C771.714 379.213 774.061 377.524 777.882 376.576C780.931 375.82 784.349 375.227 787.473 375.908C791.553 376.797 791.877 379.508 794.548 381.883C796.012 383.184 798.584 382.225 800.208 382.079C803.781 381.759 806.528 382.067 809.445 384.359C814.54 388.362 819.263 394.969 823.556 399.531C826.41 402.564 843.499 420.494 846.117 423.586C850.546 428.816 854.91 433.747 855.708 440.802C856.823 450.661 849.954 460.581 852.013 470.36C854.786 483.533 852.122 496.508 850.755 509.666C850.013 516.815 842.479 536.196 849.262 540.717" stroke="#112A46" stroke-width="2" stroke-linecap="round"/>
<path d="M804.689 536.472C806.017 534.52 807.011 533.14 808.069 536.237C809.47 540.334 809.933 544.668 811.489 548.736C813.407 553.753 814.312 558.55 814.594 563.908C814.835 568.49 815.065 570.138 819.547 569.018" stroke="#112A46" stroke-width="2" stroke-linecap="round"/>
<path d="M704.223 527.275C705.825 526.385 706.106 532.01 706.189 532.778C707.169 541.9 712.159 550.72 715.543 559.113" stroke="#112A46" stroke-width="2" stroke-linecap="round"/>
<path d="M757.286 551.33C757.681 549.354 757.394 556.99 759.409 556.99" stroke="#112A46" stroke-width="2" stroke-linecap="round"/>
<path d="M767.899 552.038C767.899 554.378 766.611 560.334 769.314 561.235" stroke="#112A46" stroke-width="2" stroke-linecap="round"/>
<path d="M757.994 557.698C758.222 559.983 760.036 562.584 762.239 563.318C766.705 564.807 768.438 563.378 772.144 560.528" stroke="#112A46" stroke-width="2" stroke-linecap="round"/>
<path d="M758.701 559.82C754.547 559.82 748.658 566.144 746.674 569.489C737.66 584.683 733.962 601.709 733.231 619.25" stroke="#112A46" stroke-width="2" stroke-linecap="round"/>
<path d="M750.591 594.503C750.591 589.267 749.866 604.95 749.406 610.166C749.033 614.402 748.362 619.151 749.406 623.328" stroke="#112A46" stroke-width="2" stroke-linecap="round"/>
<path d="M749.011 623.723C756.263 625.93 763.784 627.951 771.387 628.373C773.318 628.481 778.886 627.007 779.811 628.856" stroke="#112A46" stroke-width="2" stroke-linecap="round"/>
<path d="M733.217 629.251C744.022 633.767 754.562 634.779 766.144 634.779C768.773 634.779 771.309 634.505 773.888 633.989C774.952 633.776 777.837 632.409 777.046 633.989" stroke="#112A46" stroke-width="2" stroke-linecap="round"/>
<path d="M773.888 561.335C776.859 558.958 783.665 566.067 785.251 567.652C790.184 572.585 792.724 578.934 795.517 585.246C799.565 594.392 803.349 603.651 807.078 612.93C808.014 615.259 807.907 614.946 808.635 616.22" stroke="#112A46" stroke-width="2" stroke-linecap="round"/>
<path d="M788.892 595.688C792.046 602.257 794.417 608.673 796.548 615.628C796.759 616.316 797.579 618.984 797.579 618.984C795.854 621.093 795.863 628.629 795.035 631.137C793.776 634.95 792.78 638.824 791.656 642.676" stroke="#112A46" stroke-width="2" stroke-linecap="round"/>
<path d="M808.635 617.405C808.432 619.644 806.848 622.008 806.091 624.096C804.626 628.137 803.56 632.249 802.318 636.358C801.581 638.794 800.296 640.998 799.576 643.4C799.365 644.103 799.159 644.247 799.159 643.466" stroke="#112A46" stroke-width="2" stroke-linecap="round"/>
<path d="M790.867 643.861C790.712 642.624 787.195 646.537 787.006 646.8C786.342 647.725 784.828 650.343 785.339 651.363" stroke="#112A46" stroke-width="2" stroke-linecap="round"/>
<path d="M799.554 644.65C798.638 645.681 799.024 647.167 798.566 648.358C797.844 650.236 797.49 651.98 796.395 653.732" stroke="#112A46" stroke-width="2" stroke-linecap="round"/>
<path d="M786.918 653.337C788.208 653.337 789.019 652.463 790.077 651.758" stroke="#112A46" stroke-width="2" stroke-linecap="round"/>
<path d="M790.867 655.312C791.293 655.258 791.673 654.711 792.051 654.522" stroke="#112A46" stroke-width="2" stroke-linecap="round"/>
<path d="M796.395 654.127C795.039 654.73 793.842 654.406 792.446 654.127" stroke="#112A46" stroke-width="2" stroke-linecap="round"/>
<path d="M786.128 646.625C785.111 646.512 783.942 645.764 782.969 645.44C780.594 644.649 781.227 643.574 783.145 641.93C784.098 641.114 784.552 640.269 785.185 641.535C785.956 643.077 786.862 643.428 788.103 644.256" stroke="#112A46" stroke-width="2" stroke-linecap="round"/>
<path d="M797.184 649.389C799.19 649.389 801.207 650.027 803.064 650.749C803.76 651.02 804.761 650.721 805.082 651.363" stroke="#112A46" stroke-width="2" stroke-linecap="round"/>
<path d="M796.395 653.337C799.165 653.511 801.546 654.917 804.292 654.917" stroke="#112A46" stroke-width="2" stroke-linecap="round"/>
<path d="M804.687 650.179C805.244 651.433 805.776 653.591 806.837 654.5C807.916 655.425 804.993 654.917 804.292 654.917" stroke="#112A46" stroke-width="2" stroke-linecap="round"/>
<path d="M733.097 619.609C732.282 618.814 732.527 620.72 732.597 621.109C732.905 622.838 732.597 623.609 732.597 625.109C733.108 626.232 732.624 628.072 733.097 629.109" stroke="#112A46" stroke-width="2" stroke-linecap="round"/>
<path d="M779.254 627.425C779.137 628.712 778.845 629.908 778.153 631.009C777.775 631.611 776.358 633.565 775.798 632.725" stroke="#112A46" stroke-width="2" stroke-linecap="round"/>
<path d="M779.023 628.808C779.951 627.442 781.47 625.915 783.12 625.403C784.651 624.927 783.251 627.346 782.94 627.656" stroke="#112A46" stroke-width="2" stroke-linecap="round"/>
<path d="M783.171 628.347C784.08 628.044 785.011 627.843 785.961 627.707C787.262 627.521 787.982 627.802 789.161 627.886" stroke="#112A46" stroke-width="2" stroke-linecap="round"/>
<path d="M784.553 630.421C785.932 629.519 788.168 628.808 789.853 628.808" stroke="#112A46" stroke-width="2" stroke-linecap="round"/>
<path d="M783.862 630.881C786.233 630.881 788.653 631.112 791.005 631.112" stroke="#112A46" stroke-width="2" stroke-linecap="round"/>
<path d="M784.323 633.186C785.864 633.186 789.346 633.254 790.314 631.803" stroke="#112A46" stroke-width="2" stroke-linecap="round"/>
<path d="M776.259 634.568C777.059 635.279 778.614 635.467 779.612 635.618C781.463 635.897 783.495 635.95 785.373 635.95C786.585 635.95 787.791 635.928 788.982 635.669C790.606 635.316 789.211 634.617 788.47 633.877" stroke="#112A46" stroke-width="2" stroke-linecap="round"/>
<path d="M734.905 549.235C734.238 544.559 732.112 559.742 735.095 563.403C738.214 567.232 740.341 570.074 740.497 575.297C740.525 576.232 740.353 584.012 739.17 581.647" stroke="#112A46" stroke-width="2" stroke-linecap="round"/>
<path d="M755.236 562.233C754.851 562.281 755.565 563.13 755.714 563.251C756.59 563.962 757.424 564.531 758.479 564.972C761.246 566.128 764.53 566.637 767.529 566.267C770.717 565.874 772.967 563.438 775.11 561.294" stroke="#112A46" stroke-width="2" stroke-linecap="round"/>
<path d="M773.644 628.755C773.133 628.926 772.727 630.293 772.604 630.699C772.293 631.726 772.038 632.758 771.956 633.819" stroke="#112A46" stroke-width="2" stroke-linecap="round"/>
<path d="M791.906 644.101C794.16 644.242 796.052 645.482 798.351 645.482" stroke="#112A46" stroke-width="2" stroke-linecap="round"/>
<path d="M793.287 640.111C794.101 638.573 797.573 640.519 798.812 640.725" stroke="#112A46" stroke-width="2" stroke-linecap="round"/>
<path d="M854.29 570.802C856.979 573.827 853.618 581.951 854.508 586.135C855.846 592.426 862.31 595.276 861.577 602.121C860.956 607.915 858.205 613.376 858.205 618.76" stroke="#112A46" stroke-width="2" stroke-linecap="round"/>
<path d="M696.712 573.738C695.192 578.868 693.942 583.245 697.201 587.93C701.661 594.341 706.939 599.876 708.239 607.885C708.789 611.269 708.876 613.725 710.414 616.803" stroke="#112A46" stroke-width="2" stroke-linecap="round"/>
<path d="M839.609 588.419C834.679 593.965 840.044 598.936 842.002 603.97C843.569 608 844.503 613.491 844.503 617.781" stroke="#112A46" stroke-width="2" stroke-linecap="round"/>
<path d="M733.503 675.848C735.308 672.294 738.501 668.397 738.844 664.326C746.136 663.747 754.114 661.204 761.597 660.609C766.121 660.25 771.563 658.577 776.04 658.389C778.968 658.267 781.807 659.046 784.728 658.892C786.96 658.774 786.49 659.533 785.809 661.787C783.278 670.176 778.601 677.938 775.834 686.299C774.862 689.237 774.054 692.187 773.264 695.182C772.631 697.585 771.278 699.776 771.34 702.292C771.365 703.33 765.146 703.542 764.35 703.775C760.182 704.994 754.909 703.432 750.597 703.775C747.554 704.017 743.644 705.009 740.678 704.265C734.597 704.265 729.862 704.991 724.128 705.447C721.32 705.67 721.35 705.38 722.461 702.598C724.665 697.077 726.832 691.49 729.034 685.976C730.414 682.52 731.801 679.199 733.503 675.848Z" fill="#F5F4E6" stroke="#112A46" stroke-width="2" stroke-linecap="round"/>
<path d="M821.172 680.892C822.977 677.338 826.17 673.44 826.513 669.37C833.805 668.791 841.783 666.247 849.266 665.653C853.79 665.293 859.232 663.621 863.709 663.433C866.637 663.311 869.476 664.089 872.397 663.935C874.629 663.818 874.159 664.577 873.478 666.831C870.947 675.22 866.27 682.982 863.503 691.343C862.531 694.28 861.723 697.23 860.933 700.226C860.3 702.629 858.947 704.82 859.009 707.336C859.034 708.374 852.815 708.586 852.019 708.819C847.851 710.038 842.579 708.476 838.266 708.819C835.223 709.06 831.313 710.053 828.347 709.308C822.266 709.308 817.531 710.035 811.797 710.49C808.989 710.714 809.019 710.423 810.13 707.641C812.334 702.12 814.502 696.534 816.703 691.019C818.083 687.564 819.47 684.243 821.172 680.892Z" fill="#F5F4E6" stroke="#112A46" stroke-width="2" stroke-linecap="round"/>
<path d="M670.172 677.892C671.977 674.338 675.17 670.44 675.513 666.37C682.805 665.791 690.783 663.247 698.266 662.653C702.79 662.293 708.232 660.621 712.709 660.433C715.637 660.311 718.476 661.089 721.397 660.935C723.629 660.818 723.159 661.577 722.478 663.831C719.947 672.22 715.27 679.982 712.503 688.343C711.531 691.28 710.723 694.23 709.933 697.226C709.3 699.629 707.947 701.82 708.009 704.336C708.034 705.374 701.815 705.586 701.019 705.819C696.851 707.038 691.579 705.476 687.266 705.819C684.223 706.06 680.313 707.053 677.347 706.308C671.266 706.308 666.531 707.035 660.797 707.49C657.989 707.714 658.019 707.423 659.13 704.641C661.334 699.12 663.502 693.534 665.703 688.019C667.083 684.564 668.47 681.243 670.172 677.892Z" fill="#F5F4E6" stroke="#112A46" stroke-width="2" stroke-linecap="round"/>
<path d="M751.172 684.892C752.977 681.338 756.17 677.44 756.513 673.37C763.805 672.791 771.783 670.247 779.266 669.653C783.79 669.293 789.232 667.621 793.709 667.433C796.637 667.311 799.476 668.089 802.397 667.935C804.629 667.818 804.159 668.577 803.478 670.831C800.947 679.22 796.27 686.982 793.503 695.343C792.531 698.28 791.723 701.23 790.933 704.226C790.3 706.629 788.947 708.82 789.009 711.336C789.034 712.374 782.815 712.586 782.019 712.819C777.851 714.038 772.579 712.476 768.266 712.819C765.223 713.06 761.313 714.053 758.347 713.308C752.266 713.308 747.531 714.035 741.797 714.49C738.989 714.714 739.019 714.423 740.13 711.641C742.334 706.12 744.502 700.534 746.703 695.019C748.083 691.564 749.47 688.243 751.172 684.892Z" fill="#F5F4E6" stroke="#112A46" stroke-width="2" stroke-linecap="round"/>
<path d="M821.96 344.323C823.997 339.306 830.158 345.481 833.778 345.797C835.502 348.243 830.559 356.722 829.388 359.607C827.383 364.546 819.968 361.384 817.562 358.518C815.526 356.092 820.804 347.172 821.96 344.323Z" fill="#D9D9D9"/>
<path d="M823.148 341.398C820.72 340.04 821.586 335.837 821.597 333.649C821.643 324.618 823.735 317.363 829.119 309.893C837.83 297.808 850.845 299.099 856.252 311.894C860.036 320.849 855.532 327.874 851.56 335.209C848.38 341.082 840.25 342.672 835.089 345.563C831.896 347.351 824.271 338.629 821.96 344.323C820.804 347.172 815.526 356.092 817.562 358.518C819.968 361.384 827.383 364.546 829.388 359.607C830.58 356.671 835.678 347.942 833.681 345.673" stroke="#112A46" stroke-width="2" stroke-linecap="round"/>
<path d="M821.518 346.22C823.221 347.024 824.439 348.74 826.087 349.69C827.175 350.317 828.476 350.82 829.733 350.801C829.957 350.797 831.532 350.7 831.36 350.63" stroke="#112A46" stroke-width="2" stroke-linecap="round"/>
<path d="M818.344 351.994C819.339 352.397 819.936 353.383 820.812 353.988C821.412 354.402 821.828 354.934 822.389 355.39C823.131 355.992 824.013 356.277 824.796 356.794C825.811 357.463 826.883 357.544 828.029 357.586C828.302 357.596 829.208 357.436 828.933 357.122" stroke="#112A46" stroke-width="2" stroke-linecap="round"/>
<path d="M825.815 342.48C827.339 338.399 828.045 333.965 829.099 329.752C829.766 327.091 830.382 324.397 831.161 321.765C831.209 321.602 831.804 319.077 832.061 320.354C832.299 321.534 832.417 322.746 832.618 323.934C832.868 325.409 833.234 325.278 834.493 324.555C834.671 324.453 836.832 322.864 837.09 323.225C837.428 323.696 837.1 324.9 837.043 325.415C836.988 325.916 836.897 326.437 837.63 326.214C839.123 325.761 840.821 324.017 842.447 324.195C843.72 324.335 842.395 326.545 843.358 327.019C844.168 327.419 845.263 326.39 846.005 326.2C846.597 326.049 845.024 328.436 844.888 328.576C843.928 329.564 842.854 330.422 841.804 331.309C838.944 333.726 835.78 336.906 834.24 340.383C834.017 340.887 832.915 343.848 832.396 343.889" stroke="#112A46" stroke-width="2" stroke-linecap="round"/>
<path d="M814.903 305.329C814.903 297.688 798.771 289.197 793.474 283.899" stroke="#112A46" stroke-width="2" stroke-linecap="round"/>
<path d="M834.802 288.491C834.802 280.24 835.422 272.197 836.333 264" stroke="#112A46" stroke-width="2" stroke-linecap="round"/>
<path d="M862.355 293.083C862.84 287.743 866.237 279.544 871.539 277.776" stroke="#112A46" stroke-width="2" stroke-linecap="round"/>
<path d="M876.131 308.39C873.059 304.879 899.201 305.547 897.561 302.267" stroke="#112A46" stroke-width="2" stroke-linecap="round"/>
<path d="M866.947 335.943C872.751 336.836 878.62 339.483 883.785 342.066" stroke="#112A46" stroke-width="2" stroke-linecap="round"/>
<path d="M853.171 349.719C859.099 355.055 864.349 360.897 870.008 366.557" stroke="#112A46" stroke-width="2" stroke-linecap="round"/>
<path d="M811.256 325.063C810.987 322.914 790.893 325.594 789.923 325.656" stroke="#112A46" stroke-width="2" stroke-linecap="round"/>
<path d="M734 621H748" stroke="#F5F4E6" stroke-width="3"/>
<path d="M798 619L807 618" stroke="#F5F4E6" stroke-width="3"/>
<defs>
<filter id="filter0_f_18_47" x="1062.84" y="645.037" width="31.1807" height="36.46" filterUnits="userSpaceOnUse" color-interpolation-filters="sRGB">
<feFlood flood-opacity="0" result="BackgroundImageFix"/>
<feBlend mode="normal" in="SourceGraphic" in2="BackgroundImageFix" result="shape"/>
<feGaussianBlur stdDeviation="2" result="effect1_foregroundBlur_18_47"/>
</filter>
<filter id="filter1_f_18_47" x="1062.84" y="645.037" width="31.1807" height="36.46" filterUnits="userSpaceOnUse" color-interpolation-filters="sRGB">
<feFlood flood-opacity="0" result="BackgroundImageFix"/>
<feBlend mode="normal" in="SourceGraphic" in2="BackgroundImageFix" result="shape"/>
<feGaussianBlur stdDeviation="2" result="effect1_foregroundBlur_18_47"/>
</filter>
<filter id="filter2_f_18_47" x="1063.34" y="645.537" width="30.1807" height="35.4597" filterUnits="userSpaceOnUse" color-interpolation-filters="sRGB">
<feFlood flood-opacity="0" result="BackgroundImageFix"/>
<feBlend mode="normal" in="SourceGraphic" in2="BackgroundImageFix" result="shape"/>
<feGaussianBlur stdDeviation="2" result="effect1_foregroundBlur_18_47"/>
</filter>
<filter id="filter3_f_18_47" x="1063.47" y="645.102" width="29.9368" height="35.6622" filterUnits="userSpaceOnUse" color-interpolation-filters="sRGB">
<feFlood flood-opacity="0" result="BackgroundImageFix"/>
<feBlend mode="normal" in="SourceGraphic" in2="BackgroundImageFix" result="shape"/>
<feGaussianBlur stdDeviation="2" result="effect1_foregroundBlur_18_47"/>
</filter>
</defs>
</svg>
